<?xml version="1.0" encoding="UTF-8" standalone="no"?>
<!DOCTYPE svg PUBLIC "-//W3C//DTD SVG 1.1//EN"
 "http://www.w3.org/Graphics/SVG/1.1/DTD/svg11.dtd">
<!-- Generated by graphviz version 13.1.0 (20250701.0955)
 -->
<!-- Pages: 1 -->
<svg width="13729pt" height="584pt"
 viewBox="0.00 0.00 13729.00 584.00" xmlns="http://www.w3.org/2000/svg" xmlns:xlink="http://www.w3.org/1999/xlink">
<g id="graph0" class="graph" transform="scale(1 1) rotate(0) translate(4 580)">
<polygon fill="white" stroke="none" points="-4,4 -4,-580 13725,-580 13725,4 -4,4"/>
<!-- 1. Fundamentals -->
<g id="node1" class="node">
<title>1. Fundamentals</title>
<polygon fill="#fff8dc" stroke="#ffb300" stroke-width="3" points="304.38,-576 96.38,-576 96.38,-504 304.38,-504 304.38,-576"/>
<text xml:space="preserve" text-anchor="middle" x="200.38" y="-530.7" font-family="Helvetica,sans-Serif" font-weight="bold" font-size="24.00" fill="#000000">1. Fundamentals</text>
</g>
<!-- Programming Languages -->
<g id="node2" class="node">
<title>Programming Languages</title>
<polygon fill="#fff8dc" stroke="#ffb300" stroke-width="3" points="354.25,-324 46.5,-324 46.5,-252 354.25,-252 354.25,-324"/>
<text xml:space="preserve" text-anchor="middle" x="200.38" y="-278.7" font-family="Helvetica,sans-Serif" font-weight="bold" font-size="24.00" fill="#000000">Programming Languages</text>
</g>
<!-- 1. Fundamentals&#45;&gt;Programming Languages -->
<g id="edge1" class="edge">
<title>1. Fundamentals&#45;&gt;Programming Languages</title>
<path fill="none" stroke="#999999" stroke-width="2" d="M200.38,-503.71C200.38,-461.28 200.38,-389.69 200.38,-340.94"/>
<polygon fill="#999999" stroke="#999999" stroke-width="2" points="205.28,-341.14 200.38,-327.14 195.48,-341.14 205.28,-341.14"/>
</g>
<!-- Euron&#39;s Python Course (4 weeks) -->
<g id="node3" class="node">
<title>Euron&#39;s Python Course (4 weeks)</title>
<polygon fill="#fff8dc" stroke="#ffb300" stroke-width="3" points="400.75,-72 0,-72 0,0 400.75,0 400.75,-72"/>
<text xml:space="preserve" text-anchor="middle" x="200.38" y="-26.7" font-family="Helvetica,sans-Serif" font-weight="bold" font-size="24.00" fill="#000000">Euron&#39;s Python Course (4 weeks)</text>
</g>
<!-- Programming Languages&#45;&gt;Euron&#39;s Python Course (4 weeks) -->
<g id="edge2" class="edge">
<title>Programming Languages&#45;&gt;Euron&#39;s Python Course (4 weeks)</title>
<path fill="none" stroke="#999999" stroke-width="2" d="M200.38,-251.71C200.38,-209.28 200.38,-137.69 200.38,-88.94"/>
<polygon fill="#999999" stroke="#999999" stroke-width="2" points="205.28,-89.14 200.38,-75.14 195.48,-89.14 205.28,-89.14"/>
</g>
<!-- Fundamentals -->
<g id="node4" class="node">
<title>Fundamentals</title>
<polygon fill="#fff8dc" stroke="#ffb300" stroke-width="3" points="1304.88,-576 1123.88,-576 1123.88,-504 1304.88,-504 1304.88,-576"/>
<text xml:space="preserve" text-anchor="middle" x="1214.38" y="-530.7" font-family="Helvetica,sans-Serif" font-weight="bold" font-size="24.00" fill="#000000">Fundamentals</text>
</g>
<!-- Data Structures &amp; Algorithms -->
<g id="node5" class="node">
<title>Data Structures &amp; Algorithms</title>
<polygon fill="#fff8dc" stroke="#ffb300" stroke-width="3" points="1086.12,-324 732.62,-324 732.62,-252 1086.12,-252 1086.12,-324"/>
<text xml:space="preserve" text-anchor="middle" x="909.38" y="-278.7" font-family="Helvetica,sans-Serif" font-weight="bold" font-size="24.00" fill="#000000">Data Structures &amp; Algorithms</text>
</g>
<!-- Fundamentals&#45;&gt;Data Structures &amp; Algorithms -->
<g id="edge3" class="edge">
<title>Fundamentals&#45;&gt;Data Structures &amp; Algorithms</title>
<path fill="none" stroke="#999999" stroke-width="2" d="M1171.32,-503.71C1117.28,-459.41 1024.48,-383.35 965.08,-334.66"/>
<polygon fill="#999999" stroke="#999999" stroke-width="2" points="968.48,-331.11 954.55,-326.03 962.27,-338.69 968.48,-331.11"/>
</g>
<!-- Software Development Basics -->
<g id="node7" class="node">
<title>Software Development Basics</title>
<polygon fill="#fff8dc" stroke="#ffb300" stroke-width="3" points="1628.25,-324 1266.5,-324 1266.5,-252 1628.25,-252 1628.25,-324"/>
<text xml:space="preserve" text-anchor="middle" x="1447.38" y="-278.7" font-family="Helvetica,sans-Serif" font-weight="bold" font-size="24.00" fill="#000000">Software Development Basics</text>
</g>
<!-- Fundamentals&#45;&gt;Software Development Basics -->
<g id="edge5" class="edge">
<title>Fundamentals&#45;&gt;Software Development Basics</title>
<path fill="none" stroke="#999999" stroke-width="2" d="M1247.26,-503.71C1288.03,-459.97 1357.66,-385.26 1403.09,-336.52"/>
<polygon fill="#999999" stroke="#999999" stroke-width="2" points="1406.63,-339.91 1412.59,-326.32 1399.46,-333.22 1406.63,-339.91"/>
</g>
<!-- Euron&#39;s Data Structures &amp; Algorithms Module (3 weeks) -->
<g id="node6" class="node">
<title>Euron&#39;s Data Structures &amp; Algorithms Module (3 weeks)</title>
<polygon fill="#fff8dc" stroke="#ffb300" stroke-width="3" points="1166.38,-72 508.38,-72 508.38,0 1166.38,0 1166.38,-72"/>
<text xml:space="preserve" text-anchor="middle" x="837.38" y="-26.7" font-family="Helvetica,sans-Serif" font-weight="bold" font-size="24.00" fill="#000000">Euron&#39;s Data Structures &amp; Algorithms Module (3 weeks)</text>
</g>
<!-- Data Structures &amp; Algorithms&#45;&gt;Euron&#39;s Data Structures &amp; Algorithms Module (3 weeks) -->
<g id="edge4" class="edge">
<title>Data Structures &amp; Algorithms&#45;&gt;Euron&#39;s Data Structures &amp; Algorithms Module (3 weeks)</title>
<path fill="none" stroke="#999999" stroke-width="2" d="M899.21,-251.71C886.94,-209.09 866.19,-137.06 852.15,-88.3"/>
<polygon fill="#999999" stroke="#999999" stroke-width="2" points="856.91,-87.12 848.32,-75.02 847.49,-89.83 856.91,-87.12"/>
</g>
<!-- Euron&#39;s Software Engineering Foundations (2 weeks) -->
<g id="node8" class="node">
<title>Euron&#39;s Software Engineering Foundations (2 weeks)</title>
<polygon fill="#fff8dc" stroke="#ffb300" stroke-width="3" points="1905.88,-72 1274.88,-72 1274.88,0 1905.88,0 1905.88,-72"/>
<text xml:space="preserve" text-anchor="middle" x="1590.38" y="-26.7" font-family="Helvetica,sans-Serif" font-weight="bold" font-size="24.00" fill="#000000">Euron&#39;s Software Engineering Foundations (2 weeks)</text>
</g>
<!-- Software Development Basics&#45;&gt;Euron&#39;s Software Engineering Foundations (2 weeks) -->
<g id="edge6" class="edge">
<title>Software Development Basics&#45;&gt;Euron&#39;s Software Engineering Foundations (2 weeks)</title>
<path fill="none" stroke="#999999" stroke-width="2" d="M1467.56,-251.71C1492.21,-208.62 1534.04,-135.48 1561.94,-86.71"/>
<polygon fill="#999999" stroke="#999999" stroke-width="2" points="1566.09,-89.32 1568.79,-74.74 1557.59,-84.46 1566.09,-89.32"/>
</g>
<!-- 2. Web Development -->
<g id="node9" class="node">
<title>2. Web Development</title>
<polygon fill="#fff8dc" stroke="#ffb300" stroke-width="3" points="2394.88,-576 2141.88,-576 2141.88,-504 2394.88,-504 2394.88,-576"/>
<text xml:space="preserve" text-anchor="middle" x="2268.38" y="-530.7" font-family="Helvetica,sans-Serif" font-weight="bold" font-size="24.00" fill="#000000">2. Web Development</text>
</g>
<!-- HTML &amp; CSS -->
<g id="node10" class="node">
<title>HTML &amp; CSS</title>
<polygon fill="#fff8dc" stroke="#ffb300" stroke-width="3" points="2349.5,-324 2187.25,-324 2187.25,-252 2349.5,-252 2349.5,-324"/>
<text xml:space="preserve" text-anchor="middle" x="2268.38" y="-278.7" font-family="Helvetica,sans-Serif" font-weight="bold" font-size="24.00" fill="#000000">HTML &amp; CSS</text>
</g>
<!-- 2. Web Development&#45;&gt;HTML &amp; CSS -->
<g id="edge7" class="edge">
<title>2. Web Development&#45;&gt;HTML &amp; CSS</title>
<path fill="none" stroke="#999999" stroke-width="2" d="M2268.38,-503.71C2268.38,-461.28 2268.38,-389.69 2268.38,-340.94"/>
<polygon fill="#999999" stroke="#999999" stroke-width="2" points="2273.28,-341.14 2268.38,-327.14 2263.48,-341.14 2273.28,-341.14"/>
</g>
<!-- Euron&#39;s Web Development Track (3 weeks) -->
<g id="node11" class="node">
<title>Euron&#39;s Web Development Track (3 weeks)</title>
<polygon fill="#fff8dc" stroke="#ffb300" stroke-width="3" points="2522.38,-72 2014.38,-72 2014.38,0 2522.38,0 2522.38,-72"/>
<text xml:space="preserve" text-anchor="middle" x="2268.38" y="-26.7" font-family="Helvetica,sans-Serif" font-weight="bold" font-size="24.00" fill="#000000">Euron&#39;s Web Development Track (3 weeks)</text>
</g>
<!-- HTML &amp; CSS&#45;&gt;Euron&#39;s Web Development Track (3 weeks) -->
<g id="edge8" class="edge">
<title>HTML &amp; CSS&#45;&gt;Euron&#39;s Web Development Track (3 weeks)</title>
<path fill="none" stroke="#999999" stroke-width="2" d="M2268.38,-251.71C2268.38,-209.28 2268.38,-137.69 2268.38,-88.94"/>
<polygon fill="#999999" stroke="#999999" stroke-width="2" points="2273.28,-89.14 2268.38,-75.14 2263.48,-89.14 2273.28,-89.14"/>
</g>
<!-- Web Development -->
<g id="node12" class="node">
<title>Web Development</title>
<polygon fill="#fff8dc" stroke="#ffb300" stroke-width="3" points="3012.38,-576 2786.38,-576 2786.38,-504 3012.38,-504 3012.38,-576"/>
<text xml:space="preserve" text-anchor="middle" x="2899.38" y="-530.7" font-family="Helvetica,sans-Serif" font-weight="bold" font-size="24.00" fill="#000000">Web Development</text>
</g>
<!-- JavaScript &amp; Frontend Frameworks -->
<g id="node13" class="node">
<title>JavaScript &amp; Frontend Frameworks</title>
<polygon fill="#fff8dc" stroke="#ffb300" stroke-width="3" points="3111,-324 2687.75,-324 2687.75,-252 3111,-252 3111,-324"/>
<text xml:space="preserve" text-anchor="middle" x="2899.38" y="-278.7" font-family="Helvetica,sans-Serif" font-weight="bold" font-size="24.00" fill="#000000">JavaScript &amp; Frontend Frameworks</text>
</g>
<!-- Web Development&#45;&gt;JavaScript &amp; Frontend Frameworks -->
<g id="edge9" class="edge">
<title>Web Development&#45;&gt;JavaScript &amp; Frontend Frameworks</title>
<path fill="none" stroke="#999999" stroke-width="2" d="M2899.38,-503.71C2899.38,-461.28 2899.38,-389.69 2899.38,-340.94"/>
<polygon fill="#999999" stroke="#999999" stroke-width="2" points="2904.28,-341.14 2899.38,-327.14 2894.48,-341.14 2904.28,-341.14"/>
</g>
<!-- Euron&#39;s JavaScript &amp; React Course (4 weeks) -->
<g id="node14" class="node">
<title>Euron&#39;s JavaScript &amp; React Course (4 weeks)</title>
<polygon fill="#fff8dc" stroke="#ffb300" stroke-width="3" points="3168,-72 2630.75,-72 2630.75,0 3168,0 3168,-72"/>
<text xml:space="preserve" text-anchor="middle" x="2899.38" y="-26.7" font-family="Helvetica,sans-Serif" font-weight="bold" font-size="24.00" fill="#000000">Euron&#39;s JavaScript &amp; React Course (4 weeks)</text>
</g>
<!-- JavaScript &amp; Frontend Frameworks&#45;&gt;Euron&#39;s JavaScript &amp; React Course (4 weeks) -->
<g id="edge10" class="edge">
<title>JavaScript &amp; Frontend Frameworks&#45;&gt;Euron&#39;s JavaScript &amp; React Course (4 weeks)</title>
<path fill="none" stroke="#999999" stroke-width="2" d="M2899.38,-251.71C2899.38,-209.28 2899.38,-137.69 2899.38,-88.94"/>
<polygon fill="#999999" stroke="#999999" stroke-width="2" points="2904.28,-89.14 2899.38,-75.14 2894.48,-89.14 2904.28,-89.14"/>
</g>
<!-- 3. Backend Development -->
<g id="node15" class="node">
<title>3. Backend Development</title>
<polygon fill="#fff8dc" stroke="#ffb300" stroke-width="3" points="3717,-576 3413.75,-576 3413.75,-504 3717,-504 3717,-576"/>
<text xml:space="preserve" text-anchor="middle" x="3565.38" y="-530.7" font-family="Helvetica,sans-Serif" font-weight="bold" font-size="24.00" fill="#000000">3. Backend Development</text>
</g>
<!-- Python for Backend -->
<g id="node16" class="node">
<title>Python for Backend</title>
<polygon fill="#fff8dc" stroke="#ffb300" stroke-width="3" points="3688.12,-324 3442.62,-324 3442.62,-252 3688.12,-252 3688.12,-324"/>
<text xml:space="preserve" text-anchor="middle" x="3565.38" y="-278.7" font-family="Helvetica,sans-Serif" font-weight="bold" font-size="24.00" fill="#000000">Python for Backend</text>
</g>
<!-- 3. Backend Development&#45;&gt;Python for Backend -->
<g id="edge11" class="edge">
<title>3. Backend Development&#45;&gt;Python for Backend</title>
<path fill="none" stroke="#999999" stroke-width="2" d="M3565.38,-503.71C3565.38,-461.28 3565.38,-389.69 3565.38,-340.94"/>
<polygon fill="#999999" stroke="#999999" stroke-width="2" points="3570.28,-341.14 3565.38,-327.14 3560.48,-341.14 3570.28,-341.14"/>
</g>
<!-- Euron&#39;s Python Backend Development (4 weeks) -->
<g id="node17" class="node">
<title>Euron&#39;s Python Backend Development (4 weeks)</title>
<polygon fill="#fff8dc" stroke="#ffb300" stroke-width="3" points="3854.25,-72 3276.5,-72 3276.5,0 3854.25,0 3854.25,-72"/>
<text xml:space="preserve" text-anchor="middle" x="3565.38" y="-26.7" font-family="Helvetica,sans-Serif" font-weight="bold" font-size="24.00" fill="#000000">Euron&#39;s Python Backend Development (4 weeks)</text>
</g>
<!-- Python for Backend&#45;&gt;Euron&#39;s Python Backend Development (4 weeks) -->
<g id="edge12" class="edge">
<title>Python for Backend&#45;&gt;Euron&#39;s Python Backend Development (4 weeks)</title>
<path fill="none" stroke="#999999" stroke-width="2" d="M3565.38,-251.71C3565.38,-209.28 3565.38,-137.69 3565.38,-88.94"/>
<polygon fill="#999999" stroke="#999999" stroke-width="2" points="3570.28,-89.14 3565.38,-75.14 3560.48,-89.14 3570.28,-89.14"/>
</g>
<!-- Backend Development -->
<g id="node18" class="node">
<title>Backend Development</title>
<polygon fill="#fff8dc" stroke="#ffb300" stroke-width="3" points="4385.5,-576 4109.25,-576 4109.25,-504 4385.5,-504 4385.5,-576"/>
<text xml:space="preserve" text-anchor="middle" x="4247.38" y="-530.7" font-family="Helvetica,sans-Serif" font-weight="bold" font-size="24.00" fill="#000000">Backend Development</text>
</g>
<!-- Databases &amp; SQL -->
<g id="node19" class="node">
<title>Databases &amp; SQL</title>
<polygon fill="#fff8dc" stroke="#ffb300" stroke-width="3" points="4356.25,-324 4138.5,-324 4138.5,-252 4356.25,-252 4356.25,-324"/>
<text xml:space="preserve" text-anchor="middle" x="4247.38" y="-278.7" font-family="Helvetica,sans-Serif" font-weight="bold" font-size="24.00" fill="#000000">Databases &amp; SQL</text>
</g>
<!-- Backend Development&#45;&gt;Databases &amp; SQL -->
<g id="edge13" class="edge">
<title>Backend Development&#45;&gt;Databases &amp; SQL</title>
<path fill="none" stroke="#999999" stroke-width="2" d="M4247.38,-503.71C4247.38,-461.28 4247.38,-389.69 4247.38,-340.94"/>
<polygon fill="#999999" stroke="#999999" stroke-width="2" points="4252.28,-341.14 4247.38,-327.14 4242.48,-341.14 4252.28,-341.14"/>
</g>
<!-- Euron&#39;s SQL &amp; Database Management (3 weeks) -->
<g id="node20" class="node">
<title>Euron&#39;s SQL &amp; Database Management (3 weeks)</title>
<polygon fill="#fff8dc" stroke="#ffb300" stroke-width="3" points="4532.88,-72 3961.88,-72 3961.88,0 4532.88,0 4532.88,-72"/>
<text xml:space="preserve" text-anchor="middle" x="4247.38" y="-26.7" font-family="Helvetica,sans-Serif" font-weight="bold" font-size="24.00" fill="#000000">Euron&#39;s SQL &amp; Database Management (3 weeks)</text>
</g>
<!-- Databases &amp; SQL&#45;&gt;Euron&#39;s SQL &amp; Database Management (3 weeks) -->
<g id="edge14" class="edge">
<title>Databases &amp; SQL&#45;&gt;Euron&#39;s SQL &amp; Database Management (3 weeks)</title>
<path fill="none" stroke="#999999" stroke-width="2" d="M4247.38,-251.71C4247.38,-209.28 4247.38,-137.69 4247.38,-88.94"/>
<polygon fill="#999999" stroke="#999999" stroke-width="2" points="4252.28,-89.14 4247.38,-75.14 4242.48,-89.14 4252.28,-89.14"/>
</g>
<!-- 4. Version Control -->
<g id="node21" class="node">
<title>4. Version Control</title>
<polygon fill="#fff8dc" stroke="#ffb300" stroke-width="3" points="5012.25,-576 4788.5,-576 4788.5,-504 5012.25,-504 5012.25,-576"/>
<text xml:space="preserve" text-anchor="middle" x="4900.38" y="-530.7" font-family="Helvetica,sans-Serif" font-weight="bold" font-size="24.00" fill="#000000">4. Version Control</text>
</g>
<!-- Git &amp; GitHub -->
<g id="node22" class="node">
<title>Git &amp; GitHub</title>
<polygon fill="#fff8dc" stroke="#ffb300" stroke-width="3" points="4981.12,-324 4819.62,-324 4819.62,-252 4981.12,-252 4981.12,-324"/>
<text xml:space="preserve" text-anchor="middle" x="4900.38" y="-278.7" font-family="Helvetica,sans-Serif" font-weight="bold" font-size="24.00" fill="#000000">Git &amp; GitHub</text>
</g>
<!-- 4. Version Control&#45;&gt;Git &amp; GitHub -->
<g id="edge15" class="edge">
<title>4. Version Control&#45;&gt;Git &amp; GitHub</title>
<path fill="none" stroke="#999999" stroke-width="2" d="M4900.38,-503.71C4900.38,-461.28 4900.38,-389.69 4900.38,-340.94"/>
<polygon fill="#999999" stroke="#999999" stroke-width="2" points="4905.28,-341.14 4900.38,-327.14 4895.48,-341.14 4905.28,-341.14"/>
</g>
<!-- Euron&#39;s Git &amp; Collaboration Tools (2 weeks) -->
<g id="node23" class="node">
<title>Euron&#39;s Git &amp; Collaboration Tools (2 weeks)</title>
<polygon fill="#fff8dc" stroke="#ffb300" stroke-width="3" points="5160,-72 4640.75,-72 4640.75,0 5160,0 5160,-72"/>
<text xml:space="preserve" text-anchor="middle" x="4900.38" y="-26.7" font-family="Helvetica,sans-Serif" font-weight="bold" font-size="24.00" fill="#000000">Euron&#39;s Git &amp; Collaboration Tools (2 weeks)</text>
</g>
<!-- Git &amp; GitHub&#45;&gt;Euron&#39;s Git &amp; Collaboration Tools (2 weeks) -->
<g id="edge16" class="edge">
<title>Git &amp; GitHub&#45;&gt;Euron&#39;s Git &amp; Collaboration Tools (2 weeks)</title>
<path fill="none" stroke="#999999" stroke-width="2" d="M4900.38,-251.71C4900.38,-209.28 4900.38,-137.69 4900.38,-88.94"/>
<polygon fill="#999999" stroke="#999999" stroke-width="2" points="4905.28,-89.14 4900.38,-75.14 4895.48,-89.14 4905.28,-89.14"/>
</g>
<!-- Testing &amp; QA -->
<g id="node24" class="node">
<title>Testing &amp; QA</title>
<polygon fill="#fff8dc" stroke="#ffb300" stroke-width="3" points="5683.12,-576 5515.62,-576 5515.62,-504 5683.12,-504 5683.12,-576"/>
<text xml:space="preserve" text-anchor="middle" x="5599.38" y="-530.7" font-family="Helvetica,sans-Serif" font-weight="bold" font-size="24.00" fill="#000000">Testing &amp; QA</text>
</g>
<!-- Automated Testing -->
<g id="node25" class="node">
<title>Automated Testing</title>
<polygon fill="#fff8dc" stroke="#ffb300" stroke-width="3" points="5716.5,-324 5482.25,-324 5482.25,-252 5716.5,-252 5716.5,-324"/>
<text xml:space="preserve" text-anchor="middle" x="5599.38" y="-278.7" font-family="Helvetica,sans-Serif" font-weight="bold" font-size="24.00" fill="#000000">Automated Testing</text>
</g>
<!-- Testing &amp; QA&#45;&gt;Automated Testing -->
<g id="edge17" class="edge">
<title>Testing &amp; QA&#45;&gt;Automated Testing</title>
<path fill="none" stroke="#999999" stroke-width="2" d="M5599.38,-503.71C5599.38,-461.28 5599.38,-389.69 5599.38,-340.94"/>
<polygon fill="#999999" stroke="#999999" stroke-width="2" points="5604.28,-341.14 5599.38,-327.14 5594.48,-341.14 5604.28,-341.14"/>
</g>
<!-- Euron&#39;s Testing &amp; Quality Assurance Modules (3 weeks) -->
<g id="node26" class="node">
<title>Euron&#39;s Testing &amp; Quality Assurance Modules (3 weeks)</title>
<polygon fill="#fff8dc" stroke="#ffb300" stroke-width="3" points="5930.25,-72 5268.5,-72 5268.5,0 5930.25,0 5930.25,-72"/>
<text xml:space="preserve" text-anchor="middle" x="5599.38" y="-26.7" font-family="Helvetica,sans-Serif" font-weight="bold" font-size="24.00" fill="#000000">Euron&#39;s Testing &amp; Quality Assurance Modules (3 weeks)</text>
</g>
<!-- Automated Testing&#45;&gt;Euron&#39;s Testing &amp; Quality Assurance Modules (3 weeks) -->
<g id="edge18" class="edge">
<title>Automated Testing&#45;&gt;Euron&#39;s Testing &amp; Quality Assurance Modules (3 weeks)</title>
<path fill="none" stroke="#999999" stroke-width="2" d="M5599.38,-251.71C5599.38,-209.28 5599.38,-137.69 5599.38,-88.94"/>
<polygon fill="#999999" stroke="#999999" stroke-width="2" points="5604.28,-89.14 5599.38,-75.14 5594.48,-89.14 5604.28,-89.14"/>
</g>
<!-- 5. Software Design -->
<g id="node27" class="node">
<title>5. Software Design</title>
<polygon fill="#fff8dc" stroke="#ffb300" stroke-width="3" points="6367.75,-576 6135,-576 6135,-504 6367.75,-504 6367.75,-576"/>
<text xml:space="preserve" text-anchor="middle" x="6251.38" y="-530.7" font-family="Helvetica,sans-Serif" font-weight="bold" font-size="24.00" fill="#000000">5. Software Design</text>
</g>
<!-- Object&#45;Oriented Programming -->
<g id="node28" class="node">
<title>Object&#45;Oriented Programming</title>
<polygon fill="#fff8dc" stroke="#ffb300" stroke-width="3" points="6432.62,-324 6070.12,-324 6070.12,-252 6432.62,-252 6432.62,-324"/>
<text xml:space="preserve" text-anchor="middle" x="6251.38" y="-278.7" font-family="Helvetica,sans-Serif" font-weight="bold" font-size="24.00" fill="#000000">Object&#45;Oriented Programming</text>
</g>
<!-- 5. Software Design&#45;&gt;Object&#45;Oriented Programming -->
<g id="edge19" class="edge">
<title>5. Software Design&#45;&gt;Object&#45;Oriented Programming</title>
<path fill="none" stroke="#999999" stroke-width="2" d="M6251.38,-503.71C6251.38,-461.28 6251.38,-389.69 6251.38,-340.94"/>
<polygon fill="#999999" stroke="#999999" stroke-width="2" points="6256.28,-341.14 6251.38,-327.14 6246.48,-341.14 6256.28,-341.14"/>
</g>
<!-- Euron&#39;s OOP with Python (2 weeks) -->
<g id="node29" class="node">
<title>Euron&#39;s OOP with Python (2 weeks)</title>
<polygon fill="#fff8dc" stroke="#ffb300" stroke-width="3" points="6464.5,-72 6038.25,-72 6038.25,0 6464.5,0 6464.5,-72"/>
<text xml:space="preserve" text-anchor="middle" x="6251.38" y="-26.7" font-family="Helvetica,sans-Serif" font-weight="bold" font-size="24.00" fill="#000000">Euron&#39;s OOP with Python (2 weeks)</text>
</g>
<!-- Object&#45;Oriented Programming&#45;&gt;Euron&#39;s OOP with Python (2 weeks) -->
<g id="edge20" class="edge">
<title>Object&#45;Oriented Programming&#45;&gt;Euron&#39;s OOP with Python (2 weeks)</title>
<path fill="none" stroke="#999999" stroke-width="2" d="M6251.38,-251.71C6251.38,-209.28 6251.38,-137.69 6251.38,-88.94"/>
<polygon fill="#999999" stroke="#999999" stroke-width="2" points="6256.28,-89.14 6251.38,-75.14 6246.48,-89.14 6256.28,-89.14"/>
</g>
<!-- Software Design -->
<g id="node30" class="node">
<title>Software Design</title>
<polygon fill="#fff8dc" stroke="#ffb300" stroke-width="3" points="6980.25,-576 6774.5,-576 6774.5,-504 6980.25,-504 6980.25,-576"/>
<text xml:space="preserve" text-anchor="middle" x="6877.38" y="-530.7" font-family="Helvetica,sans-Serif" font-weight="bold" font-size="24.00" fill="#000000">Software Design</text>
</g>
<!-- Design Patterns -->
<g id="node31" class="node">
<title>Design Patterns</title>
<polygon fill="#fff8dc" stroke="#ffb300" stroke-width="3" points="6977.62,-324 6777.12,-324 6777.12,-252 6977.62,-252 6977.62,-324"/>
<text xml:space="preserve" text-anchor="middle" x="6877.38" y="-278.7" font-family="Helvetica,sans-Serif" font-weight="bold" font-size="24.00" fill="#000000">Design Patterns</text>
</g>
<!-- Software Design&#45;&gt;Design Patterns -->
<g id="edge21" class="edge">
<title>Software Design&#45;&gt;Design Patterns</title>
<path fill="none" stroke="#999999" stroke-width="2" d="M6877.38,-503.71C6877.38,-461.28 6877.38,-389.69 6877.38,-340.94"/>
<polygon fill="#999999" stroke="#999999" stroke-width="2" points="6882.28,-341.14 6877.38,-327.14 6872.48,-341.14 6882.28,-341.14"/>
</g>
<!-- Euron&#39;s Design Patterns &amp; Best Practices (2 weeks) -->
<g id="node32" class="node">
<title>Euron&#39;s Design Patterns &amp; Best Practices (2 weeks)</title>
<polygon fill="#fff8dc" stroke="#ffb300" stroke-width="3" points="7182.38,-72 6572.38,-72 6572.38,0 7182.38,0 7182.38,-72"/>
<text xml:space="preserve" text-anchor="middle" x="6877.38" y="-26.7" font-family="Helvetica,sans-Serif" font-weight="bold" font-size="24.00" fill="#000000">Euron&#39;s Design Patterns &amp; Best Practices (2 weeks)</text>
</g>
<!-- Design Patterns&#45;&gt;Euron&#39;s Design Patterns &amp; Best Practices (2 weeks) -->
<g id="edge22" class="edge">
<title>Design Patterns&#45;&gt;Euron&#39;s Design Patterns &amp; Best Practices (2 weeks)</title>
<path fill="none" stroke="#999999" stroke-width="2" d="M6877.38,-251.71C6877.38,-209.28 6877.38,-137.69 6877.38,-88.94"/>
<polygon fill="#999999" stroke="#999999" stroke-width="2" points="6882.28,-89.14 6877.38,-75.14 6872.48,-89.14 6882.28,-89.14"/>
</g>
<!-- 6. Cloud &amp; Deployment -->
<g id="node33" class="node">
<title>6. Cloud &amp; Deployment</title>
<polygon fill="#fff8dc" stroke="#ffb300" stroke-width="3" points="7690.12,-576 7408.62,-576 7408.62,-504 7690.12,-504 7690.12,-576"/>
<text xml:space="preserve" text-anchor="middle" x="7549.38" y="-530.7" font-family="Helvetica,sans-Serif" font-weight="bold" font-size="24.00" fill="#000000">6. Cloud &amp; Deployment</text>
</g>
<!-- Cloud Fundamentals -->
<g id="node34" class="node">
<title>Cloud Fundamentals</title>
<polygon fill="#fff8dc" stroke="#ffb300" stroke-width="3" points="7677.75,-324 7421,-324 7421,-252 7677.75,-252 7677.75,-324"/>
<text xml:space="preserve" text-anchor="middle" x="7549.38" y="-278.7" font-family="Helvetica,sans-Serif" font-weight="bold" font-size="24.00" fill="#000000">Cloud Fundamentals</text>
</g>
<!-- 6. Cloud &amp; Deployment&#45;&gt;Cloud Fundamentals -->
<g id="edge23" class="edge">
<title>6. Cloud &amp; Deployment&#45;&gt;Cloud Fundamentals</title>
<path fill="none" stroke="#999999" stroke-width="2" d="M7549.38,-503.71C7549.38,-461.28 7549.38,-389.69 7549.38,-340.94"/>
<polygon fill="#999999" stroke="#999999" stroke-width="2" points="7554.28,-341.14 7549.38,-327.14 7544.48,-341.14 7554.28,-341.14"/>
</g>
<!-- Euron&#39;s Cloud Computing Basics (2 weeks) -->
<g id="node35" class="node">
<title>Euron&#39;s Cloud Computing Basics (2 weeks)</title>
<polygon fill="#fff8dc" stroke="#ffb300" stroke-width="3" points="7807.88,-72 7290.88,-72 7290.88,0 7807.88,0 7807.88,-72"/>
<text xml:space="preserve" text-anchor="middle" x="7549.38" y="-26.7" font-family="Helvetica,sans-Serif" font-weight="bold" font-size="24.00" fill="#000000">Euron&#39;s Cloud Computing Basics (2 weeks)</text>
</g>
<!-- Cloud Fundamentals&#45;&gt;Euron&#39;s Cloud Computing Basics (2 weeks) -->
<g id="edge24" class="edge">
<title>Cloud Fundamentals&#45;&gt;Euron&#39;s Cloud Computing Basics (2 weeks)</title>
<path fill="none" stroke="#999999" stroke-width="2" d="M7549.38,-251.71C7549.38,-209.28 7549.38,-137.69 7549.38,-88.94"/>
<polygon fill="#999999" stroke="#999999" stroke-width="2" points="7554.28,-89.14 7549.38,-75.14 7544.48,-89.14 7554.28,-89.14"/>
</g>
<!-- Deployment -->
<g id="node36" class="node">
<title>Deployment</title>
<polygon fill="#fff8dc" stroke="#ffb300" stroke-width="3" points="8299.75,-576 8145,-576 8145,-504 8299.75,-504 8299.75,-576"/>
<text xml:space="preserve" text-anchor="middle" x="8222.38" y="-530.7" font-family="Helvetica,sans-Serif" font-weight="bold" font-size="24.00" fill="#000000">Deployment</text>
</g>
<!-- CI/CD Pipelines -->
<g id="node37" class="node">
<title>CI/CD Pipelines</title>
<polygon fill="#fff8dc" stroke="#ffb300" stroke-width="3" points="8319.62,-324 8125.12,-324 8125.12,-252 8319.62,-252 8319.62,-324"/>
<text xml:space="preserve" text-anchor="middle" x="8222.38" y="-278.7" font-family="Helvetica,sans-Serif" font-weight="bold" font-size="24.00" fill="#000000">CI/CD Pipelines</text>
</g>
<!-- Deployment&#45;&gt;CI/CD Pipelines -->
<g id="edge25" class="edge">
<title>Deployment&#45;&gt;CI/CD Pipelines</title>
<path fill="none" stroke="#999999" stroke-width="2" d="M8222.38,-503.71C8222.38,-461.28 8222.38,-389.69 8222.38,-340.94"/>
<polygon fill="#999999" stroke="#999999" stroke-width="2" points="8227.28,-341.14 8222.38,-327.14 8217.48,-341.14 8227.28,-341.14"/>
</g>
<!-- Euron&#39;s DevOps &amp; Deployment Strategies (3 weeks) -->
<g id="node38" class="node">
<title>Euron&#39;s DevOps &amp; Deployment Strategies (3 weeks)</title>
<polygon fill="#fff8dc" stroke="#ffb300" stroke-width="3" points="8528.88,-72 7915.88,-72 7915.88,0 8528.88,0 8528.88,-72"/>
<text xml:space="preserve" text-anchor="middle" x="8222.38" y="-26.7" font-family="Helvetica,sans-Serif" font-weight="bold" font-size="24.00" fill="#000000">Euron&#39;s DevOps &amp; Deployment Strategies (3 weeks)</text>
</g>
<!-- CI/CD Pipelines&#45;&gt;Euron&#39;s DevOps &amp; Deployment Strategies (3 weeks) -->
<g id="edge26" class="edge">
<title>CI/CD Pipelines&#45;&gt;Euron&#39;s DevOps &amp; Deployment Strategies (3 weeks)</title>
<path fill="none" stroke="#999999" stroke-width="2" d="M8222.38,-251.71C8222.38,-209.28 8222.38,-137.69 8222.38,-88.94"/>
<polygon fill="#999999" stroke="#999999" stroke-width="2" points="8227.28,-89.14 8222.38,-75.14 8217.48,-89.14 8227.28,-89.14"/>
</g>
<!-- 7. Data Handling -->
<g id="node39" class="node">
<title>7. Data Handling</title>
<polygon fill="#fff8dc" stroke="#ffb300" stroke-width="3" points="9022.62,-576 8816.12,-576 8816.12,-504 9022.62,-504 9022.62,-576"/>
<text xml:space="preserve" text-anchor="middle" x="8919.38" y="-530.7" font-family="Helvetica,sans-Serif" font-weight="bold" font-size="24.00" fill="#000000">7. Data Handling</text>
</g>
<!-- Data Analysis with Python -->
<g id="node40" class="node">
<title>Data Analysis with Python</title>
<polygon fill="#fff8dc" stroke="#ffb300" stroke-width="3" points="9078.88,-324 8759.88,-324 8759.88,-252 9078.88,-252 9078.88,-324"/>
<text xml:space="preserve" text-anchor="middle" x="8919.38" y="-278.7" font-family="Helvetica,sans-Serif" font-weight="bold" font-size="24.00" fill="#000000">Data Analysis with Python</text>
</g>
<!-- 7. Data Handling&#45;&gt;Data Analysis with Python -->
<g id="edge27" class="edge">
<title>7. Data Handling&#45;&gt;Data Analysis with Python</title>
<path fill="none" stroke="#999999" stroke-width="2" d="M8919.38,-503.71C8919.38,-461.28 8919.38,-389.69 8919.38,-340.94"/>
<polygon fill="#999999" stroke="#999999" stroke-width="2" points="8924.28,-341.14 8919.38,-327.14 8914.48,-341.14 8924.28,-341.14"/>
</g>
<!-- Euron&#39;s Data Analysis &amp; Visualization (3 weeks) -->
<g id="node41" class="node">
<title>Euron&#39;s Data Analysis &amp; Visualization (3 weeks)</title>
<polygon fill="#fff8dc" stroke="#ffb300" stroke-width="3" points="9202.25,-72 8636.5,-72 8636.5,0 9202.25,0 9202.25,-72"/>
<text xml:space="preserve" text-anchor="middle" x="8919.38" y="-26.7" font-family="Helvetica,sans-Serif" font-weight="bold" font-size="24.00" fill="#000000">Euron&#39;s Data Analysis &amp; Visualization (3 weeks)</text>
</g>
<!-- Data Analysis with Python&#45;&gt;Euron&#39;s Data Analysis &amp; Visualization (3 weeks) -->
<g id="edge28" class="edge">
<title>Data Analysis with Python&#45;&gt;Euron&#39;s Data Analysis &amp; Visualization (3 weeks)</title>
<path fill="none" stroke="#999999" stroke-width="2" d="M8919.38,-251.71C8919.38,-209.28 8919.38,-137.69 8919.38,-88.94"/>
<polygon fill="#999999" stroke="#999999" stroke-width="2" points="8924.28,-89.14 8919.38,-75.14 8914.48,-89.14 8924.28,-89.14"/>
</g>
<!-- Machine Learning Basics -->
<g id="node42" class="node">
<title>Machine Learning Basics</title>
<polygon fill="#fff8dc" stroke="#ffb300" stroke-width="3" points="9758.25,-576 9450.5,-576 9450.5,-504 9758.25,-504 9758.25,-576"/>
<text xml:space="preserve" text-anchor="middle" x="9604.38" y="-530.7" font-family="Helvetica,sans-Serif" font-weight="bold" font-size="24.00" fill="#000000">Machine Learning Basics</text>
</g>
<!-- ML Algorithms &amp; Concepts -->
<g id="node43" class="node">
<title>ML Algorithms &amp; Concepts</title>
<polygon fill="#fff8dc" stroke="#ffb300" stroke-width="3" points="9767.25,-324 9441.5,-324 9441.5,-252 9767.25,-252 9767.25,-324"/>
<text xml:space="preserve" text-anchor="middle" x="9604.38" y="-278.7" font-family="Helvetica,sans-Serif" font-weight="bold" font-size="24.00" fill="#000000">ML Algorithms &amp; Concepts</text>
</g>
<!-- Machine Learning Basics&#45;&gt;ML Algorithms &amp; Concepts -->
<g id="edge29" class="edge">
<title>Machine Learning Basics&#45;&gt;ML Algorithms &amp; Concepts</title>
<path fill="none" stroke="#999999" stroke-width="2" d="M9604.38,-503.71C9604.38,-461.28 9604.38,-389.69 9604.38,-340.94"/>
<polygon fill="#999999" stroke="#999999" stroke-width="2" points="9609.28,-341.14 9604.38,-327.14 9599.48,-341.14 9609.28,-341.14"/>
</g>
<!-- Euron&#39;s Machine Learning Foundations (4 weeks) -->
<g id="node44" class="node">
<title>Euron&#39;s Machine Learning Foundations (4 weeks)</title>
<polygon fill="#fff8dc" stroke="#ffb300" stroke-width="3" points="9898.88,-72 9309.88,-72 9309.88,0 9898.88,0 9898.88,-72"/>
<text xml:space="preserve" text-anchor="middle" x="9604.38" y="-26.7" font-family="Helvetica,sans-Serif" font-weight="bold" font-size="24.00" fill="#000000">Euron&#39;s Machine Learning Foundations (4 weeks)</text>
</g>
<!-- ML Algorithms &amp; Concepts&#45;&gt;Euron&#39;s Machine Learning Foundations (4 weeks) -->
<g id="edge30" class="edge">
<title>ML Algorithms &amp; Concepts&#45;&gt;Euron&#39;s Machine Learning Foundations (4 weeks)</title>
<path fill="none" stroke="#999999" stroke-width="2" d="M9604.38,-251.71C9604.38,-209.28 9604.38,-137.69 9604.38,-88.94"/>
<polygon fill="#999999" stroke="#999999" stroke-width="2" points="9609.28,-89.14 9604.38,-75.14 9599.48,-89.14 9609.28,-89.14"/>
</g>
<!-- 8. Specialization -->
<g id="node45" class="node">
<title>8. Specialization</title>
<polygon fill="#fff8dc" stroke="#ffb300" stroke-width="3" points="10365.88,-576 10160.88,-576 10160.88,-504 10365.88,-504 10365.88,-576"/>
<text xml:space="preserve" text-anchor="middle" x="10263.38" y="-530.7" font-family="Helvetica,sans-Serif" font-weight="bold" font-size="24.00" fill="#000000">8. Specialization</text>
</g>
<!-- Frontend Frameworks -->
<g id="node46" class="node">
<title>Frontend Frameworks</title>
<polygon fill="#fff8dc" stroke="#ffb300" stroke-width="3" points="10398.5,-324 10128.25,-324 10128.25,-252 10398.5,-252 10398.5,-324"/>
<text xml:space="preserve" text-anchor="middle" x="10263.38" y="-278.7" font-family="Helvetica,sans-Serif" font-weight="bold" font-size="24.00" fill="#000000">Frontend Frameworks</text>
</g>
<!-- 8. Specialization&#45;&gt;Frontend Frameworks -->
<g id="edge31" class="edge">
<title>8. Specialization&#45;&gt;Frontend Frameworks</title>
<path fill="none" stroke="#999999" stroke-width="2" d="M10263.38,-503.71C10263.38,-461.28 10263.38,-389.69 10263.38,-340.94"/>
<polygon fill="#999999" stroke="#999999" stroke-width="2" points="10268.28,-341.14 10263.38,-327.14 10258.48,-341.14 10268.28,-341.14"/>
</g>
<!-- Euron&#39;s React or Angular Course (4 weeks) -->
<g id="node47" class="node">
<title>Euron&#39;s React or Angular Course (4 weeks)</title>
<polygon fill="#fff8dc" stroke="#ffb300" stroke-width="3" points="10519.62,-72 10007.12,-72 10007.12,0 10519.62,0 10519.62,-72"/>
<text xml:space="preserve" text-anchor="middle" x="10263.38" y="-26.7" font-family="Helvetica,sans-Serif" font-weight="bold" font-size="24.00" fill="#000000">Euron&#39;s React or Angular Course (4 weeks)</text>
</g>
<!-- Frontend Frameworks&#45;&gt;Euron&#39;s React or Angular Course (4 weeks) -->
<g id="edge32" class="edge">
<title>Frontend Frameworks&#45;&gt;Euron&#39;s React or Angular Course (4 weeks)</title>
<path fill="none" stroke="#999999" stroke-width="2" d="M10263.38,-251.71C10263.38,-209.28 10263.38,-137.69 10263.38,-88.94"/>
<polygon fill="#999999" stroke="#999999" stroke-width="2" points="10268.28,-89.14 10263.38,-75.14 10258.48,-89.14 10268.28,-89.14"/>
</g>
<!-- Specialization -->
<g id="node48" class="node">
<title>Specialization</title>
<polygon fill="#fff8dc" stroke="#ffb300" stroke-width="3" points="10979.38,-576 10801.38,-576 10801.38,-504 10979.38,-504 10979.38,-576"/>
<text xml:space="preserve" text-anchor="middle" x="10890.38" y="-530.7" font-family="Helvetica,sans-Serif" font-weight="bold" font-size="24.00" fill="#000000">Specialization</text>
</g>
<!-- Backend Frameworks -->
<g id="node49" class="node">
<title>Backend Frameworks</title>
<polygon fill="#fff8dc" stroke="#ffb300" stroke-width="3" points="11023.25,-324 10757.5,-324 10757.5,-252 11023.25,-252 11023.25,-324"/>
<text xml:space="preserve" text-anchor="middle" x="10890.38" y="-278.7" font-family="Helvetica,sans-Serif" font-weight="bold" font-size="24.00" fill="#000000">Backend Frameworks</text>
</g>
<!-- Specialization&#45;&gt;Backend Frameworks -->
<g id="edge33" class="edge">
<title>Specialization&#45;&gt;Backend Frameworks</title>
<path fill="none" stroke="#999999" stroke-width="2" d="M10890.38,-503.71C10890.38,-461.28 10890.38,-389.69 10890.38,-340.94"/>
<polygon fill="#999999" stroke="#999999" stroke-width="2" points="10895.28,-341.14 10890.38,-327.14 10885.48,-341.14 10895.28,-341.14"/>
</g>
<!-- Euron&#39;s Django or Node.js Course (4 weeks) -->
<g id="node50" class="node">
<title>Euron&#39;s Django or Node.js Course (4 weeks)</title>
<polygon fill="#fff8dc" stroke="#ffb300" stroke-width="3" points="11153.38,-72 10627.38,-72 10627.38,0 11153.38,0 11153.38,-72"/>
<text xml:space="preserve" text-anchor="middle" x="10890.38" y="-26.7" font-family="Helvetica,sans-Serif" font-weight="bold" font-size="24.00" fill="#000000">Euron&#39;s Django or Node.js Course (4 weeks)</text>
</g>
<!-- Backend Frameworks&#45;&gt;Euron&#39;s Django or Node.js Course (4 weeks) -->
<g id="edge34" class="edge">
<title>Backend Frameworks&#45;&gt;Euron&#39;s Django or Node.js Course (4 weeks)</title>
<path fill="none" stroke="#999999" stroke-width="2" d="M10890.38,-251.71C10890.38,-209.28 10890.38,-137.69 10890.38,-88.94"/>
<polygon fill="#999999" stroke="#999999" stroke-width="2" points="10895.28,-89.14 10890.38,-75.14 10885.48,-89.14 10895.28,-89.14"/>
</g>
<!-- 9. Soft Skills -->
<g id="node51" class="node">
<title>9. Soft Skills</title>
<polygon fill="#fff8dc" stroke="#ffb300" stroke-width="3" points="11606.38,-576 11446.38,-576 11446.38,-504 11606.38,-504 11606.38,-576"/>
<text xml:space="preserve" text-anchor="middle" x="11526.38" y="-530.7" font-family="Helvetica,sans-Serif" font-weight="bold" font-size="24.00" fill="#000000">9. Soft Skills</text>
</g>
<!-- Agile &amp; Scrum Methodologies -->
<g id="node52" class="node">
<title>Agile &amp; Scrum Methodologies</title>
<polygon fill="#fff8dc" stroke="#ffb300" stroke-width="3" points="11706.12,-324 11346.62,-324 11346.62,-252 11706.12,-252 11706.12,-324"/>
<text xml:space="preserve" text-anchor="middle" x="11526.38" y="-278.7" font-family="Helvetica,sans-Serif" font-weight="bold" font-size="24.00" fill="#000000">Agile &amp; Scrum Methodologies</text>
</g>
<!-- 9. Soft Skills&#45;&gt;Agile &amp; Scrum Methodologies -->
<g id="edge35" class="edge">
<title>9. Soft Skills&#45;&gt;Agile &amp; Scrum Methodologies</title>
<path fill="none" stroke="#999999" stroke-width="2" d="M11526.38,-503.71C11526.38,-461.28 11526.38,-389.69 11526.38,-340.94"/>
<polygon fill="#999999" stroke="#999999" stroke-width="2" points="11531.28,-341.14 11526.38,-327.14 11521.48,-341.14 11531.28,-341.14"/>
</g>
<!-- Euron&#39;s Agile Project Management (2 weeks) -->
<g id="node53" class="node">
<title>Euron&#39;s Agile Project Management (2 weeks)</title>
<polygon fill="#fff8dc" stroke="#ffb300" stroke-width="3" points="11791.62,-72 11261.12,-72 11261.12,0 11791.62,0 11791.62,-72"/>
<text xml:space="preserve" text-anchor="middle" x="11526.38" y="-26.7" font-family="Helvetica,sans-Serif" font-weight="bold" font-size="24.00" fill="#000000">Euron&#39;s Agile Project Management (2 weeks)</text>
</g>
<!-- Agile &amp; Scrum Methodologies&#45;&gt;Euron&#39;s Agile Project Management (2 weeks) -->
<g id="edge36" class="edge">
<title>Agile &amp; Scrum Methodologies&#45;&gt;Euron&#39;s Agile Project Management (2 weeks)</title>
<path fill="none" stroke="#999999" stroke-width="2" d="M11526.38,-251.71C11526.38,-209.28 11526.38,-137.69 11526.38,-88.94"/>
<polygon fill="#999999" stroke="#999999" stroke-width="2" points="11531.28,-89.14 11526.38,-75.14 11521.48,-89.14 11531.28,-89.14"/>
</g>
<!-- Career Preparation -->
<g id="node54" class="node">
<title>Career Preparation</title>
<polygon fill="#fff8dc" stroke="#ffb300" stroke-width="3" points="12278.75,-576 12046,-576 12046,-504 12278.75,-504 12278.75,-576"/>
<text xml:space="preserve" text-anchor="middle" x="12162.38" y="-530.7" font-family="Helvetica,sans-Serif" font-weight="bold" font-size="24.00" fill="#000000">Career Preparation</text>
</g>
<!-- Resume &amp; Portfolio Building -->
<g id="node55" class="node">
<title>Resume &amp; Portfolio Building</title>
<polygon fill="#fff8dc" stroke="#ffb300" stroke-width="3" points="12334.62,-324 11990.12,-324 11990.12,-252 12334.62,-252 12334.62,-324"/>
<text xml:space="preserve" text-anchor="middle" x="12162.38" y="-278.7" font-family="Helvetica,sans-Serif" font-weight="bold" font-size="24.00" fill="#000000">Resume &amp; Portfolio Building</text>
</g>
<!-- Career Preparation&#45;&gt;Resume &amp; Portfolio Building -->
<g id="edge37" class="edge">
<title>Career Preparation&#45;&gt;Resume &amp; Portfolio Building</title>
<path fill="none" stroke="#999999" stroke-width="2" d="M12162.38,-503.71C12162.38,-461.28 12162.38,-389.69 12162.38,-340.94"/>
<polygon fill="#999999" stroke="#999999" stroke-width="2" points="12167.28,-341.14 12162.38,-327.14 12157.48,-341.14 12167.28,-341.14"/>
</g>
<!-- Euron&#39;s Career Readiness Module (2 weeks) -->
<g id="node56" class="node">
<title>Euron&#39;s Career Readiness Module (2 weeks)</title>
<polygon fill="#fff8dc" stroke="#ffb300" stroke-width="3" points="12424.62,-72 11900.12,-72 11900.12,0 12424.62,0 12424.62,-72"/>
<text xml:space="preserve" text-anchor="middle" x="12162.38" y="-26.7" font-family="Helvetica,sans-Serif" font-weight="bold" font-size="24.00" fill="#000000">Euron&#39;s Career Readiness Module (2 weeks)</text>
</g>
<!-- Resume &amp; Portfolio Building&#45;&gt;Euron&#39;s Career Readiness Module (2 weeks) -->
<g id="edge38" class="edge">
<title>Resume &amp; Portfolio Building&#45;&gt;Euron&#39;s Career Readiness Module (2 weeks)</title>
<path fill="none" stroke="#999999" stroke-width="2" d="M12162.38,-251.71C12162.38,-209.28 12162.38,-137.69 12162.38,-88.94"/>
<polygon fill="#999999" stroke="#999999" stroke-width="2" points="12167.28,-89.14 12162.38,-75.14 12157.48,-89.14 12167.28,-89.14"/>
</g>
<!-- 10. Capstone Projects -->
<g id="node57" class="node">
<title>10. Capstone Projects</title>
<polygon fill="#fff8dc" stroke="#ffb300" stroke-width="3" points="12918.12,-576 12648.62,-576 12648.62,-504 12918.12,-504 12918.12,-576"/>
<text xml:space="preserve" text-anchor="middle" x="12783.38" y="-530.7" font-family="Helvetica,sans-Serif" font-weight="bold" font-size="24.00" fill="#000000">10. Capstone Projects</text>
</g>
<!-- Build Real&#45;World Applications -->
<g id="node58" class="node">
<title>Build Real&#45;World Applications</title>
<polygon fill="#fff8dc" stroke="#ffb300" stroke-width="3" points="12965,-324 12601.75,-324 12601.75,-252 12965,-252 12965,-324"/>
<text xml:space="preserve" text-anchor="middle" x="12783.38" y="-278.7" font-family="Helvetica,sans-Serif" font-weight="bold" font-size="24.00" fill="#000000">Build Real&#45;World Applications</text>
</g>
<!-- 10. Capstone Projects&#45;&gt;Build Real&#45;World Applications -->
<g id="edge39" class="edge">
<title>10. Capstone Projects&#45;&gt;Build Real&#45;World Applications</title>
<path fill="none" stroke="#999999" stroke-width="2" d="M12783.38,-503.71C12783.38,-461.28 12783.38,-389.69 12783.38,-340.94"/>
<polygon fill="#999999" stroke="#999999" stroke-width="2" points="12788.28,-341.14 12783.38,-327.14 12778.48,-341.14 12788.28,-341.14"/>
</g>
<!-- Euron&#39;s Project&#45;Based Learning (4 weeks) -->
<g id="node59" class="node">
<title>Euron&#39;s Project&#45;Based Learning (4 weeks)</title>
<polygon fill="#fff8dc" stroke="#ffb300" stroke-width="3" points="13033.62,-72 12533.12,-72 12533.12,0 13033.62,0 13033.62,-72"/>
<text xml:space="preserve" text-anchor="middle" x="12783.38" y="-26.7" font-family="Helvetica,sans-Serif" font-weight="bold" font-size="24.00" fill="#000000">Euron&#39;s Project&#45;Based Learning (4 weeks)</text>
</g>
<!-- Build Real&#45;World Applications&#45;&gt;Euron&#39;s Project&#45;Based Learning (4 weeks) -->
<g id="edge40" class="edge">
<title>Build Real&#45;World Applications&#45;&gt;Euron&#39;s Project&#45;Based Learning (4 weeks)</title>
<path fill="none" stroke="#999999" stroke-width="2" d="M12783.38,-251.71C12783.38,-209.28 12783.38,-137.69 12783.38,-88.94"/>
<polygon fill="#999999" stroke="#999999" stroke-width="2" points="12788.28,-89.14 12783.38,-75.14 12778.48,-89.14 12788.28,-89.14"/>
</g>
<!-- Interview Prep -->
<g id="node60" class="node">
<title>Interview Prep</title>
<polygon fill="#fff8dc" stroke="#ffb300" stroke-width="3" points="13521.88,-576 13340.88,-576 13340.88,-504 13521.88,-504 13521.88,-576"/>
<text xml:space="preserve" text-anchor="middle" x="13431.38" y="-530.7" font-family="Helvetica,sans-Serif" font-weight="bold" font-size="24.00" fill="#000000">Interview Prep</text>
</g>
<!-- Coding Interviews &amp; Problem Solving -->
<g id="node61" class="node">
<title>Coding Interviews &amp; Problem Solving</title>
<polygon fill="#fff8dc" stroke="#ffb300" stroke-width="3" points="13654.62,-324 13208.12,-324 13208.12,-252 13654.62,-252 13654.62,-324"/>
<text xml:space="preserve" text-anchor="middle" x="13431.38" y="-278.7" font-family="Helvetica,sans-Serif" font-weight="bold" font-size="24.00" fill="#000000">Coding Interviews &amp; Problem Solving</text>
</g>
<!-- Interview Prep&#45;&gt;Coding Interviews &amp; Problem Solving -->
<g id="edge41" class="edge">
<title>Interview Prep&#45;&gt;Coding Interviews &amp; Problem Solving</title>
<path fill="none" stroke="#999999" stroke-width="2" d="M13431.38,-503.71C13431.38,-461.28 13431.38,-389.69 13431.38,-340.94"/>
<polygon fill="#999999" stroke="#999999" stroke-width="2" points="13436.28,-341.14 13431.38,-327.14 13426.48,-341.14 13436.28,-341.14"/>
</g>
<!-- Euron&#39;s Interview Preparation Program (3 weeks) -->
<g id="node62" class="node">
<title>Euron&#39;s Interview Preparation Program (3 weeks)</title>
<polygon fill="#fff8dc" stroke="#ffb300" stroke-width="3" points="13721,-72 13141.75,-72 13141.75,0 13721,0 13721,-72"/>
<text xml:space="preserve" text-anchor="middle" x="13431.38" y="-26.7" font-family="Helvetica,sans-Serif" font-weight="bold" font-size="24.00" fill="#000000">Euron&#39;s Interview Preparation Program (3 weeks)</text>
</g>
<!-- Coding Interviews &amp; Problem Solving&#45;&gt;Euron&#39;s Interview Preparation Program (3 weeks) -->
<g id="edge42" class="edge">
<title>Coding Interviews &amp; Problem Solving&#45;&gt;Euron&#39;s Interview Preparation Program (3 weeks)</title>
<path fill="none" stroke="#999999" stroke-width="2" d="M13431.38,-251.71C13431.38,-209.28 13431.38,-137.69 13431.38,-88.94"/>
<polygon fill="#999999" stroke="#999999" stroke-width="2" points="13436.28,-89.14 13431.38,-75.14 13426.48,-89.14 13436.28,-89.14"/>
</g>
</g>
</svg>
