<?xml version="1.0" encoding="UTF-8" standalone="no"?>
<!DOCTYPE svg PUBLIC "-//W3C//DTD SVG 1.1//EN"
 "http://www.w3.org/Graphics/SVG/1.1/DTD/svg11.dtd">
<!-- Generated by graphviz version 13.1.0 (20250701.0955)
 -->
<!-- Pages: 1 -->
<svg width="10912pt" height="584pt"
 viewBox="0.00 0.00 10912.00 584.00" xmlns="http://www.w3.org/2000/svg" xmlns:xlink="http://www.w3.org/1999/xlink">
<g id="graph0" class="graph" transform="scale(1 1) rotate(0) translate(4 580)">
<polygon fill="white" stroke="none" points="-4,4 -4,-580 10908.12,-580 10908.12,4 -4,4"/>
<!-- Fundamentals -->
<g id="node1" class="node">
<title>Fundamentals</title>
<polygon fill="#fff8dc" stroke="#ffb300" stroke-width="3" points="1491.88,-576 1310.88,-576 1310.88,-504 1491.88,-504 1491.88,-576"/>
<text xml:space="preserve" text-anchor="middle" x="1401.38" y="-530.7" font-family="Helvetica,sans-Serif" font-weight="bold" font-size="24.00" fill="#000000">Fundamentals</text>
</g>
<!-- Programming Basics -->
<g id="node2" class="node">
<title>Programming Basics</title>
<polygon fill="#fff8dc" stroke="#ffb300" stroke-width="3" points="477.75,-324 221,-324 221,-252 477.75,-252 477.75,-324"/>
<text xml:space="preserve" text-anchor="middle" x="349.38" y="-278.7" font-family="Helvetica,sans-Serif" font-weight="bold" font-size="24.00" fill="#000000">Programming Basics</text>
</g>
<!-- Fundamentals&#45;&gt;Programming Basics -->
<g id="edge1" class="edge">
<title>Fundamentals&#45;&gt;Programming Basics</title>
<path fill="none" stroke="#999999" stroke-width="2" d="M1310.77,-517.47C1128.29,-474.1 715.13,-375.92 494.55,-323.5"/>
<polygon fill="#999999" stroke="#999999" stroke-width="2" points="495.73,-318.74 480.98,-320.27 493.47,-328.28 495.73,-318.74"/>
</g>
<!-- Computer Science Foundations -->
<g id="node4" class="node">
<title>Computer Science Foundations</title>
<polygon fill="#fff8dc" stroke="#ffb300" stroke-width="3" points="1033.38,-324 651.38,-324 651.38,-252 1033.38,-252 1033.38,-324"/>
<text xml:space="preserve" text-anchor="middle" x="842.38" y="-278.7" font-family="Helvetica,sans-Serif" font-weight="bold" font-size="24.00" fill="#000000">Computer Science Foundations</text>
</g>
<!-- Fundamentals&#45;&gt;Computer Science Foundations -->
<g id="edge3" class="edge">
<title>Fundamentals&#45;&gt;Computer Science Foundations</title>
<path fill="none" stroke="#999999" stroke-width="2" d="M1322.17,-503.58C1220.84,-458.26 1045.49,-379.84 937.17,-331.39"/>
<polygon fill="#999999" stroke="#999999" stroke-width="2" points="939.23,-326.95 924.45,-325.71 935.23,-335.9 939.23,-326.95"/>
</g>
<!-- Data Structures &amp; Algorithms -->
<g id="node6" class="node">
<title>Data Structures &amp; Algorithms</title>
<polygon fill="#fff8dc" stroke="#ffb300" stroke-width="3" points="1578.12,-324 1224.62,-324 1224.62,-252 1578.12,-252 1578.12,-324"/>
<text xml:space="preserve" text-anchor="middle" x="1401.38" y="-278.7" font-family="Helvetica,sans-Serif" font-weight="bold" font-size="24.00" fill="#000000">Data Structures &amp; Algorithms</text>
</g>
<!-- Fundamentals&#45;&gt;Data Structures &amp; Algorithms -->
<g id="edge5" class="edge">
<title>Fundamentals&#45;&gt;Data Structures &amp; Algorithms</title>
<path fill="none" stroke="#999999" stroke-width="2" d="M1401.38,-503.71C1401.38,-461.28 1401.38,-389.69 1401.38,-340.94"/>
<polygon fill="#999999" stroke="#999999" stroke-width="2" points="1406.28,-341.14 1401.38,-327.14 1396.48,-341.14 1406.28,-341.14"/>
</g>
<!-- Version Control -->
<g id="node8" class="node">
<title>Version Control</title>
<polygon fill="#fff8dc" stroke="#ffb300" stroke-width="3" points="2004.75,-324 1808,-324 1808,-252 2004.75,-252 2004.75,-324"/>
<text xml:space="preserve" text-anchor="middle" x="1906.38" y="-278.7" font-family="Helvetica,sans-Serif" font-weight="bold" font-size="24.00" fill="#000000">Version Control</text>
</g>
<!-- Fundamentals&#45;&gt;Version Control -->
<g id="edge7" class="edge">
<title>Fundamentals&#45;&gt;Version Control</title>
<path fill="none" stroke="#999999" stroke-width="2" d="M1472.93,-503.58C1564.1,-458.44 1721.58,-380.48 1819.53,-331.99"/>
<polygon fill="#999999" stroke="#999999" stroke-width="2" points="1821.64,-336.42 1832.01,-325.81 1817.29,-327.63 1821.64,-336.42"/>
</g>
<!-- Software Development Lifecycle -->
<g id="node10" class="node">
<title>Software Development Lifecycle</title>
<polygon fill="#fff8dc" stroke="#ffb300" stroke-width="3" points="2683.38,-324 2295.38,-324 2295.38,-252 2683.38,-252 2683.38,-324"/>
<text xml:space="preserve" text-anchor="middle" x="2489.38" y="-278.7" font-family="Helvetica,sans-Serif" font-weight="bold" font-size="24.00" fill="#000000">Software Development Lifecycle</text>
</g>
<!-- Fundamentals&#45;&gt;Software Development Lifecycle -->
<g id="edge9" class="edge">
<title>Fundamentals&#45;&gt;Software Development Lifecycle</title>
<path fill="none" stroke="#999999" stroke-width="2" d="M1492.27,-518.12C1674.06,-476.34 2085.02,-381.91 2318.64,-328.23"/>
<polygon fill="#999999" stroke="#999999" stroke-width="2" points="2319.65,-333.03 2332.19,-325.12 2317.45,-323.48 2319.65,-333.03"/>
</g>
<!-- Euron&#39;s Python Course (4 weeks) -->
<g id="node3" class="node">
<title>Euron&#39;s Python Course (4 weeks)</title>
<polygon fill="#fff8dc" stroke="#ffb300" stroke-width="3" points="400.75,-72 0,-72 0,0 400.75,0 400.75,-72"/>
<text xml:space="preserve" text-anchor="middle" x="200.38" y="-26.7" font-family="Helvetica,sans-Serif" font-weight="bold" font-size="24.00" fill="#000000">Euron&#39;s Python Course (4 weeks)</text>
</g>
<!-- Programming Basics&#45;&gt;Euron&#39;s Python Course (4 weeks) -->
<g id="edge2" class="edge">
<title>Programming Basics&#45;&gt;Euron&#39;s Python Course (4 weeks)</title>
<path fill="none" stroke="#999999" stroke-width="2" d="M328.34,-251.71C302.66,-208.62 259.07,-135.48 230,-86.71"/>
<polygon fill="#999999" stroke="#999999" stroke-width="2" points="234.23,-84.23 222.85,-74.71 225.81,-89.24 234.23,-84.23"/>
</g>
<!-- Euron&#39;s Computer Science Intro (3 weeks) -->
<g id="node5" class="node">
<title>Euron&#39;s Computer Science Intro (3 weeks)</title>
<polygon fill="#fff8dc" stroke="#ffb300" stroke-width="3" points="1010,-72 508.75,-72 508.75,0 1010,0 1010,-72"/>
<text xml:space="preserve" text-anchor="middle" x="759.38" y="-26.7" font-family="Helvetica,sans-Serif" font-weight="bold" font-size="24.00" fill="#000000">Euron&#39;s Computer Science Intro (3 weeks)</text>
</g>
<!-- Computer Science Foundations&#45;&gt;Euron&#39;s Computer Science Intro (3 weeks) -->
<g id="edge4" class="edge">
<title>Computer Science Foundations&#45;&gt;Euron&#39;s Computer Science Intro (3 weeks)</title>
<path fill="none" stroke="#999999" stroke-width="2" d="M830.66,-251.71C816.48,-209 792.49,-136.74 776.3,-87.98"/>
<polygon fill="#999999" stroke="#999999" stroke-width="2" points="781.05,-86.72 771.99,-74.98 771.75,-89.81 781.05,-86.72"/>
</g>
<!-- Euron&#39;s Data Structures &amp; Algorithms (5 weeks) -->
<g id="node7" class="node">
<title>Euron&#39;s Data Structures &amp; Algorithms (5 weeks)</title>
<polygon fill="#fff8dc" stroke="#ffb300" stroke-width="3" points="1684.25,-72 1118.5,-72 1118.5,0 1684.25,0 1684.25,-72"/>
<text xml:space="preserve" text-anchor="middle" x="1401.38" y="-26.7" font-family="Helvetica,sans-Serif" font-weight="bold" font-size="24.00" fill="#000000">Euron&#39;s Data Structures &amp; Algorithms (5 weeks)</text>
</g>
<!-- Data Structures &amp; Algorithms&#45;&gt;Euron&#39;s Data Structures &amp; Algorithms (5 weeks) -->
<g id="edge6" class="edge">
<title>Data Structures &amp; Algorithms&#45;&gt;Euron&#39;s Data Structures &amp; Algorithms (5 weeks)</title>
<path fill="none" stroke="#999999" stroke-width="2" d="M1401.38,-251.71C1401.38,-209.28 1401.38,-137.69 1401.38,-88.94"/>
<polygon fill="#999999" stroke="#999999" stroke-width="2" points="1406.28,-89.14 1401.38,-75.14 1396.48,-89.14 1406.28,-89.14"/>
</g>
<!-- Euron&#39;s Git &amp; GitHub Mastery (2 weeks) -->
<g id="node9" class="node">
<title>Euron&#39;s Git &amp; GitHub Mastery (2 weeks)</title>
<polygon fill="#fff8dc" stroke="#ffb300" stroke-width="3" points="2264.38,-72 1792.38,-72 1792.38,0 2264.38,0 2264.38,-72"/>
<text xml:space="preserve" text-anchor="middle" x="2028.38" y="-26.7" font-family="Helvetica,sans-Serif" font-weight="bold" font-size="24.00" fill="#000000">Euron&#39;s Git &amp; GitHub Mastery (2 weeks)</text>
</g>
<!-- Version Control&#45;&gt;Euron&#39;s Git &amp; GitHub Mastery (2 weeks) -->
<g id="edge8" class="edge">
<title>Version Control&#45;&gt;Euron&#39;s Git &amp; GitHub Mastery (2 weeks)</title>
<path fill="none" stroke="#999999" stroke-width="2" d="M1923.6,-251.71C1944.53,-208.81 1980.01,-136.11 2003.81,-87.34"/>
<polygon fill="#999999" stroke="#999999" stroke-width="2" points="2008.18,-89.56 2009.91,-74.83 1999.37,-85.26 2008.18,-89.56"/>
</g>
<!-- Euron&#39;s Software Engineering Principles (3 weeks) -->
<g id="node11" class="node">
<title>Euron&#39;s Software Engineering Principles (3 weeks)</title>
<polygon fill="#fff8dc" stroke="#ffb300" stroke-width="3" points="2972.12,-72 2372.62,-72 2372.62,0 2972.12,0 2972.12,-72"/>
<text xml:space="preserve" text-anchor="middle" x="2672.38" y="-26.7" font-family="Helvetica,sans-Serif" font-weight="bold" font-size="24.00" fill="#000000">Euron&#39;s Software Engineering Principles (3 weeks)</text>
</g>
<!-- Software Development Lifecycle&#45;&gt;Euron&#39;s Software Engineering Principles (3 weeks) -->
<g id="edge10" class="edge">
<title>Software Development Lifecycle&#45;&gt;Euron&#39;s Software Engineering Principles (3 weeks)</title>
<path fill="none" stroke="#999999" stroke-width="2" d="M2515.21,-251.71C2546.95,-208.35 2600.98,-134.53 2636.68,-85.77"/>
<polygon fill="#999999" stroke="#999999" stroke-width="2" points="2640.57,-88.74 2644.89,-74.55 2632.66,-82.95 2640.57,-88.74"/>
</g>
<!-- Specialization -->
<g id="node12" class="node">
<title>Specialization</title>
<polygon fill="#fff8dc" stroke="#ffb300" stroke-width="3" points="4772.38,-576 4594.38,-576 4594.38,-504 4772.38,-504 4772.38,-576"/>
<text xml:space="preserve" text-anchor="middle" x="4683.38" y="-530.7" font-family="Helvetica,sans-Serif" font-weight="bold" font-size="24.00" fill="#000000">Specialization</text>
</g>
<!-- Front&#45;End Development -->
<g id="node13" class="node">
<title>Front&#45;End Development</title>
<polygon fill="#fff8dc" stroke="#ffb300" stroke-width="3" points="3823,-324 3531.75,-324 3531.75,-252 3823,-252 3823,-324"/>
<text xml:space="preserve" text-anchor="middle" x="3677.38" y="-278.7" font-family="Helvetica,sans-Serif" font-weight="bold" font-size="24.00" fill="#000000">Front&#45;End Development</text>
</g>
<!-- Specialization&#45;&gt;Front&#45;End Development -->
<g id="edge11" class="edge">
<title>Specialization&#45;&gt;Front&#45;End Development</title>
<path fill="none" stroke="#999999" stroke-width="2" d="M4594.1,-516.81C4423.74,-474.48 4050.23,-381.66 3836.27,-328.49"/>
<polygon fill="#999999" stroke="#999999" stroke-width="2" points="3837.59,-323.76 3822.82,-325.14 3835.22,-333.28 3837.59,-323.76"/>
</g>
<!-- Back&#45;End Development -->
<g id="node15" class="node">
<title>Back&#45;End Development</title>
<polygon fill="#fff8dc" stroke="#ffb300" stroke-width="3" points="4541.75,-324 4255,-324 4255,-252 4541.75,-252 4541.75,-324"/>
<text xml:space="preserve" text-anchor="middle" x="4398.38" y="-278.7" font-family="Helvetica,sans-Serif" font-weight="bold" font-size="24.00" fill="#000000">Back&#45;End Development</text>
</g>
<!-- Specialization&#45;&gt;Back&#45;End Development -->
<g id="edge13" class="edge">
<title>Specialization&#45;&gt;Back&#45;End Development</title>
<path fill="none" stroke="#999999" stroke-width="2" d="M4643.15,-503.71C4592.86,-459.6 4506.66,-383.99 4451.13,-335.28"/>
<polygon fill="#999999" stroke="#999999" stroke-width="2" points="4454.43,-331.65 4440.68,-326.11 4447.97,-339.02 4454.43,-331.65"/>
</g>
<!-- Database Management -->
<g id="node17" class="node">
<title>Database Management</title>
<polygon fill="#fff8dc" stroke="#ffb300" stroke-width="3" points="5019,-324 4739.75,-324 4739.75,-252 5019,-252 5019,-324"/>
<text xml:space="preserve" text-anchor="middle" x="4879.38" y="-278.7" font-family="Helvetica,sans-Serif" font-weight="bold" font-size="24.00" fill="#000000">Database Management</text>
</g>
<!-- Specialization&#45;&gt;Database Management -->
<g id="edge15" class="edge">
<title>Specialization&#45;&gt;Database Management</title>
<path fill="none" stroke="#999999" stroke-width="2" d="M4711.04,-503.71C4745.11,-460.25 4803.16,-386.22 4841.39,-337.45"/>
<polygon fill="#999999" stroke="#999999" stroke-width="2" points="4845.2,-340.53 4849.98,-326.49 4837.49,-334.49 4845.2,-340.53"/>
</g>
<!-- Testing &amp; Debugging -->
<g id="node19" class="node">
<title>Testing &amp; Debugging</title>
<polygon fill="#fff8dc" stroke="#ffb300" stroke-width="3" points="5653.88,-324 5394.88,-324 5394.88,-252 5653.88,-252 5653.88,-324"/>
<text xml:space="preserve" text-anchor="middle" x="5524.38" y="-278.7" font-family="Helvetica,sans-Serif" font-weight="bold" font-size="24.00" fill="#000000">Testing &amp; Debugging</text>
</g>
<!-- Specialization&#45;&gt;Testing &amp; Debugging -->
<g id="edge17" class="edge">
<title>Specialization&#45;&gt;Testing &amp; Debugging</title>
<path fill="none" stroke="#999999" stroke-width="2" d="M4772.58,-512.48C4920.08,-468.63 5215.7,-380.76 5389.05,-329.23"/>
<polygon fill="#999999" stroke="#999999" stroke-width="2" points="5390.25,-333.98 5402.28,-325.3 5387.46,-324.59 5390.25,-333.98"/>
</g>
<!-- Euron&#39;s Web Development (HTML, CSS, JavaScript) (4 weeks) -->
<g id="node14" class="node">
<title>Euron&#39;s Web Development (HTML, CSS, JavaScript) (4 weeks)</title>
<polygon fill="#fff8dc" stroke="#ffb300" stroke-width="3" points="3806.88,-72 3079.88,-72 3079.88,0 3806.88,0 3806.88,-72"/>
<text xml:space="preserve" text-anchor="middle" x="3443.38" y="-26.7" font-family="Helvetica,sans-Serif" font-weight="bold" font-size="24.00" fill="#000000">Euron&#39;s Web Development (HTML, CSS, JavaScript) (4 weeks)</text>
</g>
<!-- Front&#45;End Development&#45;&gt;Euron&#39;s Web Development (HTML, CSS, JavaScript) (4 weeks) -->
<g id="edge12" class="edge">
<title>Front&#45;End Development&#45;&gt;Euron&#39;s Web Development (HTML, CSS, JavaScript) (4 weeks)</title>
<path fill="none" stroke="#999999" stroke-width="2" d="M3644.34,-251.71C3603.41,-207.97 3533.48,-133.26 3487.85,-84.52"/>
<polygon fill="#999999" stroke="#999999" stroke-width="2" points="3491.45,-81.19 3478.31,-74.32 3484.3,-87.89 3491.45,-81.19"/>
</g>
<!-- Euron&#39;s Backend Programming (Node.js, Python Django) (4 weeks) -->
<g id="node16" class="node">
<title>Euron&#39;s Backend Programming (Node.js, Python Django) (4 weeks)</title>
<polygon fill="#fff8dc" stroke="#ffb300" stroke-width="3" points="4703.62,-72 3915.12,-72 3915.12,0 4703.62,0 4703.62,-72"/>
<text xml:space="preserve" text-anchor="middle" x="4309.38" y="-26.7" font-family="Helvetica,sans-Serif" font-weight="bold" font-size="24.00" fill="#000000">Euron&#39;s Backend Programming (Node.js, Python Django) (4 weeks)</text>
</g>
<!-- Back&#45;End Development&#45;&gt;Euron&#39;s Backend Programming (Node.js, Python Django) (4 weeks) -->
<g id="edge14" class="edge">
<title>Back&#45;End Development&#45;&gt;Euron&#39;s Backend Programming (Node.js, Python Django) (4 weeks)</title>
<path fill="none" stroke="#999999" stroke-width="2" d="M4385.81,-251.71C4370.61,-209 4344.88,-136.74 4327.52,-87.98"/>
<polygon fill="#999999" stroke="#999999" stroke-width="2" points="4332.2,-86.51 4322.89,-74.96 4322.97,-89.79 4332.2,-86.51"/>
</g>
<!-- Euron&#39;s SQL &amp; NoSQL Courses (3 weeks) -->
<g id="node18" class="node">
<title>Euron&#39;s SQL &amp; NoSQL Courses (3 weeks)</title>
<polygon fill="#fff8dc" stroke="#ffb300" stroke-width="3" points="5303.5,-72 4811.25,-72 4811.25,0 5303.5,0 5303.5,-72"/>
<text xml:space="preserve" text-anchor="middle" x="5057.38" y="-26.7" font-family="Helvetica,sans-Serif" font-weight="bold" font-size="24.00" fill="#000000">Euron&#39;s SQL &amp; NoSQL Courses (3 weeks)</text>
</g>
<!-- Database Management&#45;&gt;Euron&#39;s SQL &amp; NoSQL Courses (3 weeks) -->
<g id="edge16" class="edge">
<title>Database Management&#45;&gt;Euron&#39;s SQL &amp; NoSQL Courses (3 weeks)</title>
<path fill="none" stroke="#999999" stroke-width="2" d="M4904.5,-251.71C4935.38,-208.35 4987.93,-134.53 5022.65,-85.77"/>
<polygon fill="#999999" stroke="#999999" stroke-width="2" points="5026.49,-88.82 5030.62,-74.58 5018.51,-83.14 5026.49,-88.82"/>
</g>
<!-- Euron&#39;s Testing Frameworks &amp; Debugging Techniques (2 weeks) -->
<g id="node20" class="node">
<title>Euron&#39;s Testing Frameworks &amp; Debugging Techniques (2 weeks)</title>
<polygon fill="#fff8dc" stroke="#ffb300" stroke-width="3" points="6171.38,-72 5411.38,-72 5411.38,0 6171.38,0 6171.38,-72"/>
<text xml:space="preserve" text-anchor="middle" x="5791.38" y="-26.7" font-family="Helvetica,sans-Serif" font-weight="bold" font-size="24.00" fill="#000000">Euron&#39;s Testing Frameworks &amp; Debugging Techniques (2 weeks)</text>
</g>
<!-- Testing &amp; Debugging&#45;&gt;Euron&#39;s Testing Frameworks &amp; Debugging Techniques (2 weeks) -->
<g id="edge18" class="edge">
<title>Testing &amp; Debugging&#45;&gt;Euron&#39;s Testing Frameworks &amp; Debugging Techniques (2 weeks)</title>
<path fill="none" stroke="#999999" stroke-width="2" d="M5562.06,-251.71C5609.07,-207.69 5689.59,-132.31 5741.62,-83.58"/>
<polygon fill="#999999" stroke="#999999" stroke-width="2" points="5744.8,-87.32 5751.67,-74.18 5738.1,-80.17 5744.8,-87.32"/>
</g>
<!-- Advanced Skills -->
<g id="node21" class="node">
<title>Advanced Skills</title>
<polygon fill="#fff8dc" stroke="#ffb300" stroke-width="3" points="7590.38,-576 7388.38,-576 7388.38,-504 7590.38,-504 7590.38,-576"/>
<text xml:space="preserve" text-anchor="middle" x="7489.38" y="-530.7" font-family="Helvetica,sans-Serif" font-weight="bold" font-size="24.00" fill="#000000">Advanced Skills</text>
</g>
<!-- Object&#45;Oriented Programming -->
<g id="node22" class="node">
<title>Object&#45;Oriented Programming</title>
<polygon fill="#fff8dc" stroke="#ffb300" stroke-width="3" points="6801.62,-324 6439.12,-324 6439.12,-252 6801.62,-252 6801.62,-324"/>
<text xml:space="preserve" text-anchor="middle" x="6620.38" y="-278.7" font-family="Helvetica,sans-Serif" font-weight="bold" font-size="24.00" fill="#000000">Object&#45;Oriented Programming</text>
</g>
<!-- Advanced Skills&#45;&gt;Object&#45;Oriented Programming -->
<g id="edge19" class="edge">
<title>Advanced Skills&#45;&gt;Object&#45;Oriented Programming</title>
<path fill="none" stroke="#999999" stroke-width="2" d="M7387.99,-509.83C7232.64,-465.14 6935.29,-379.6 6759.77,-329.1"/>
<polygon fill="#999999" stroke="#999999" stroke-width="2" points="6761.15,-324.4 6746.34,-325.24 6758.44,-333.82 6761.15,-324.4"/>
</g>
<!-- Software Design Patterns -->
<g id="node24" class="node">
<title>Software Design Patterns</title>
<polygon fill="#fff8dc" stroke="#ffb300" stroke-width="3" points="7384,-324 7074.75,-324 7074.75,-252 7384,-252 7384,-324"/>
<text xml:space="preserve" text-anchor="middle" x="7229.38" y="-278.7" font-family="Helvetica,sans-Serif" font-weight="bold" font-size="24.00" fill="#000000">Software Design Patterns</text>
</g>
<!-- Advanced Skills&#45;&gt;Software Design Patterns -->
<g id="edge21" class="edge">
<title>Advanced Skills&#45;&gt;Software Design Patterns</title>
<path fill="none" stroke="#999999" stroke-width="2" d="M7452.67,-503.71C7406.99,-459.79 7328.83,-384.63 7278.15,-335.89"/>
<polygon fill="#999999" stroke="#999999" stroke-width="2" points="7281.56,-332.38 7268.07,-326.21 7274.77,-339.44 7281.56,-332.38"/>
</g>
<!-- Cloud &amp; Deployment -->
<g id="node26" class="node">
<title>Cloud &amp; Deployment</title>
<polygon fill="#fff8dc" stroke="#ffb300" stroke-width="3" points="7811.62,-324 7557.12,-324 7557.12,-252 7811.62,-252 7811.62,-324"/>
<text xml:space="preserve" text-anchor="middle" x="7684.38" y="-278.7" font-family="Helvetica,sans-Serif" font-weight="bold" font-size="24.00" fill="#000000">Cloud &amp; Deployment</text>
</g>
<!-- Advanced Skills&#45;&gt;Cloud &amp; Deployment -->
<g id="edge23" class="edge">
<title>Advanced Skills&#45;&gt;Cloud &amp; Deployment</title>
<path fill="none" stroke="#999999" stroke-width="2" d="M7516.9,-503.71C7550.8,-460.25 7608.55,-386.22 7646.58,-337.45"/>
<polygon fill="#999999" stroke="#999999" stroke-width="2" points="7650.38,-340.55 7655.13,-326.5 7642.65,-334.52 7650.38,-340.55"/>
</g>
<!-- Mobile Development -->
<g id="node28" class="node">
<title>Mobile Development</title>
<polygon fill="#fff8dc" stroke="#ffb300" stroke-width="3" points="8411.5,-324 8159.25,-324 8159.25,-252 8411.5,-252 8411.5,-324"/>
<text xml:space="preserve" text-anchor="middle" x="8285.38" y="-278.7" font-family="Helvetica,sans-Serif" font-weight="bold" font-size="24.00" fill="#000000">Mobile Development</text>
</g>
<!-- Advanced Skills&#45;&gt;Mobile Development -->
<g id="edge25" class="edge">
<title>Advanced Skills&#45;&gt;Mobile Development</title>
<path fill="none" stroke="#999999" stroke-width="2" d="M7590.59,-507.21C7734.61,-461.98 7998.66,-379.05 8156.49,-329.48"/>
<polygon fill="#999999" stroke="#999999" stroke-width="2" points="8157.59,-334.27 8169.48,-325.4 8154.66,-324.92 8157.59,-334.27"/>
</g>
<!-- Euron&#39;s OOP in Python &amp; Java (3 weeks) -->
<g id="node23" class="node">
<title>Euron&#39;s OOP in Python &amp; Java (3 weeks)</title>
<polygon fill="#fff8dc" stroke="#ffb300" stroke-width="3" points="6763.38,-72 6279.38,-72 6279.38,0 6763.38,0 6763.38,-72"/>
<text xml:space="preserve" text-anchor="middle" x="6521.38" y="-26.7" font-family="Helvetica,sans-Serif" font-weight="bold" font-size="24.00" fill="#000000">Euron&#39;s OOP in Python &amp; Java (3 weeks)</text>
</g>
<!-- Object&#45;Oriented Programming&#45;&gt;Euron&#39;s OOP in Python &amp; Java (3 weeks) -->
<g id="edge20" class="edge">
<title>Object&#45;Oriented Programming&#45;&gt;Euron&#39;s OOP in Python &amp; Java (3 weeks)</title>
<path fill="none" stroke="#999999" stroke-width="2" d="M6606.4,-251.71C6589.45,-208.9 6560.75,-136.43 6541.44,-87.66"/>
<polygon fill="#999999" stroke="#999999" stroke-width="2" points="6546.1,-86.14 6536.39,-74.92 6536.99,-89.74 6546.1,-86.14"/>
</g>
<!-- Euron&#39;s Design Patterns &amp; Architecture (3 weeks) -->
<g id="node25" class="node">
<title>Euron&#39;s Design Patterns &amp; Architecture (3 weeks)</title>
<polygon fill="#fff8dc" stroke="#ffb300" stroke-width="3" points="7457,-72 6871.75,-72 6871.75,0 7457,0 7457,-72"/>
<text xml:space="preserve" text-anchor="middle" x="7164.38" y="-26.7" font-family="Helvetica,sans-Serif" font-weight="bold" font-size="24.00" fill="#000000">Euron&#39;s Design Patterns &amp; Architecture (3 weeks)</text>
</g>
<!-- Software Design Patterns&#45;&gt;Euron&#39;s Design Patterns &amp; Architecture (3 weeks) -->
<g id="edge22" class="edge">
<title>Software Design Patterns&#45;&gt;Euron&#39;s Design Patterns &amp; Architecture (3 weeks)</title>
<path fill="none" stroke="#999999" stroke-width="2" d="M7220.2,-251.71C7209.12,-209.09 7190.39,-137.06 7177.71,-88.3"/>
<polygon fill="#999999" stroke="#999999" stroke-width="2" points="7182.53,-87.36 7174.27,-75.04 7173.05,-89.82 7182.53,-87.36"/>
</g>
<!-- Euron&#39;s Cloud Services &amp; CI/CD (4 weeks) -->
<g id="node27" class="node">
<title>Euron&#39;s Cloud Services &amp; CI/CD (4 weeks)</title>
<polygon fill="#fff8dc" stroke="#ffb300" stroke-width="3" points="8063.88,-72 7564.88,-72 7564.88,0 8063.88,0 8063.88,-72"/>
<text xml:space="preserve" text-anchor="middle" x="7814.38" y="-26.7" font-family="Helvetica,sans-Serif" font-weight="bold" font-size="24.00" fill="#000000">Euron&#39;s Cloud Services &amp; CI/CD (4 weeks)</text>
</g>
<!-- Cloud &amp; Deployment&#45;&gt;Euron&#39;s Cloud Services &amp; CI/CD (4 weeks) -->
<g id="edge24" class="edge">
<title>Cloud &amp; Deployment&#45;&gt;Euron&#39;s Cloud Services &amp; CI/CD (4 weeks)</title>
<path fill="none" stroke="#999999" stroke-width="2" d="M7702.73,-251.71C7725.08,-208.72 7763,-135.8 7788.36,-87.03"/>
<polygon fill="#999999" stroke="#999999" stroke-width="2" points="7792.61,-89.48 7794.72,-74.79 7783.92,-84.96 7792.61,-89.48"/>
</g>
<!-- Euron&#39;s Mobile App Development (Android &amp; iOS) (4 weeks) -->
<g id="node29" class="node">
<title>Euron&#39;s Mobile App Development (Android &amp; iOS) (4 weeks)</title>
<polygon fill="#fff8dc" stroke="#ffb300" stroke-width="3" points="8878.38,-72 8172.38,-72 8172.38,0 8878.38,0 8878.38,-72"/>
<text xml:space="preserve" text-anchor="middle" x="8525.38" y="-26.7" font-family="Helvetica,sans-Serif" font-weight="bold" font-size="24.00" fill="#000000">Euron&#39;s Mobile App Development (Android &amp; iOS) (4 weeks)</text>
</g>
<!-- Mobile Development&#45;&gt;Euron&#39;s Mobile App Development (Android &amp; iOS) (4 weeks) -->
<g id="edge26" class="edge">
<title>Mobile Development&#45;&gt;Euron&#39;s Mobile App Development (Android &amp; iOS) (4 weeks)</title>
<path fill="none" stroke="#999999" stroke-width="2" d="M8319.25,-251.71C8361.33,-207.88 8433.27,-132.94 8480.06,-84.2"/>
<polygon fill="#999999" stroke="#999999" stroke-width="2" points="8483.41,-87.79 8489.57,-74.29 8476.34,-81 8483.41,-87.79"/>
</g>
<!-- Career Preparation -->
<g id="node30" class="node">
<title>Career Preparation</title>
<polygon fill="#fff8dc" stroke="#ffb300" stroke-width="3" points="10001.75,-576 9769,-576 9769,-504 10001.75,-504 10001.75,-576"/>
<text xml:space="preserve" text-anchor="middle" x="9885.38" y="-530.7" font-family="Helvetica,sans-Serif" font-weight="bold" font-size="24.00" fill="#000000">Career Preparation</text>
</g>
<!-- Building Portfolio &amp; Projects -->
<g id="node31" class="node">
<title>Building Portfolio &amp; Projects</title>
<polygon fill="#fff8dc" stroke="#ffb300" stroke-width="3" points="9519.38,-324 9173.38,-324 9173.38,-252 9519.38,-252 9519.38,-324"/>
<text xml:space="preserve" text-anchor="middle" x="9346.38" y="-278.7" font-family="Helvetica,sans-Serif" font-weight="bold" font-size="24.00" fill="#000000">Building Portfolio &amp; Projects</text>
</g>
<!-- Career Preparation&#45;&gt;Building Portfolio &amp; Projects -->
<g id="edge27" class="edge">
<title>Career Preparation&#45;&gt;Building Portfolio &amp; Projects</title>
<path fill="none" stroke="#999999" stroke-width="2" d="M9809.01,-503.58C9711.4,-458.31 9542.57,-380 9438.1,-331.54"/>
<polygon fill="#999999" stroke="#999999" stroke-width="2" points="9440.36,-327.19 9425.6,-325.75 9436.24,-336.08 9440.36,-327.19"/>
</g>
<!-- Resume &amp; Interview Skills -->
<g id="node33" class="node">
<title>Resume &amp; Interview Skills</title>
<polygon fill="#fff8dc" stroke="#ffb300" stroke-width="3" points="10043,-324 9727.75,-324 9727.75,-252 10043,-252 10043,-324"/>
<text xml:space="preserve" text-anchor="middle" x="9885.38" y="-278.7" font-family="Helvetica,sans-Serif" font-weight="bold" font-size="24.00" fill="#000000">Resume &amp; Interview Skills</text>
</g>
<!-- Career Preparation&#45;&gt;Resume &amp; Interview Skills -->
<g id="edge29" class="edge">
<title>Career Preparation&#45;&gt;Resume &amp; Interview Skills</title>
<path fill="none" stroke="#999999" stroke-width="2" d="M9885.38,-503.71C9885.38,-461.28 9885.38,-389.69 9885.38,-340.94"/>
<polygon fill="#999999" stroke="#999999" stroke-width="2" points="9890.28,-341.14 9885.38,-327.14 9880.48,-341.14 9890.28,-341.14"/>
</g>
<!-- Networking &amp; Community Engagement -->
<g id="node35" class="node">
<title>Networking &amp; Community Engagement</title>
<polygon fill="#fff8dc" stroke="#ffb300" stroke-width="3" points="10715.25,-324 10251.5,-324 10251.5,-252 10715.25,-252 10715.25,-324"/>
<text xml:space="preserve" text-anchor="middle" x="10483.38" y="-278.7" font-family="Helvetica,sans-Serif" font-weight="bold" font-size="24.00" fill="#000000">Networking &amp; Community Engagement</text>
</g>
<!-- Career Preparation&#45;&gt;Networking &amp; Community Engagement -->
<g id="edge31" class="edge">
<title>Career Preparation&#45;&gt;Networking &amp; Community Engagement</title>
<path fill="none" stroke="#999999" stroke-width="2" d="M9970.1,-503.58C10078.84,-458.12 10267.24,-379.36 10383.03,-330.95"/>
<polygon fill="#999999" stroke="#999999" stroke-width="2" points="10384.71,-335.56 10395.73,-325.64 10380.93,-326.52 10384.71,-335.56"/>
</g>
<!-- Euron&#39;s Project Portfolio Creation (3 weeks) -->
<g id="node32" class="node">
<title>Euron&#39;s Project Portfolio Creation (3 weeks)</title>
<polygon fill="#fff8dc" stroke="#ffb300" stroke-width="3" points="9508.12,-72 8986.62,-72 8986.62,0 9508.12,0 9508.12,-72"/>
<text xml:space="preserve" text-anchor="middle" x="9247.38" y="-26.7" font-family="Helvetica,sans-Serif" font-weight="bold" font-size="24.00" fill="#000000">Euron&#39;s Project Portfolio Creation (3 weeks)</text>
</g>
<!-- Building Portfolio &amp; Projects&#45;&gt;Euron&#39;s Project Portfolio Creation (3 weeks) -->
<g id="edge28" class="edge">
<title>Building Portfolio &amp; Projects&#45;&gt;Euron&#39;s Project Portfolio Creation (3 weeks)</title>
<path fill="none" stroke="#999999" stroke-width="2" d="M9332.4,-251.71C9315.45,-208.9 9286.75,-136.43 9267.44,-87.66"/>
<polygon fill="#999999" stroke="#999999" stroke-width="2" points="9272.1,-86.14 9262.39,-74.92 9262.99,-89.74 9272.1,-86.14"/>
</g>
<!-- Euron&#39;s Career Readiness Modules (2 weeks) -->
<g id="node34" class="node">
<title>Euron&#39;s Career Readiness Modules (2 weeks)</title>
<polygon fill="#fff8dc" stroke="#ffb300" stroke-width="3" points="10154.38,-72 9616.38,-72 9616.38,0 10154.38,0 10154.38,-72"/>
<text xml:space="preserve" text-anchor="middle" x="9885.38" y="-26.7" font-family="Helvetica,sans-Serif" font-weight="bold" font-size="24.00" fill="#000000">Euron&#39;s Career Readiness Modules (2 weeks)</text>
</g>
<!-- Resume &amp; Interview Skills&#45;&gt;Euron&#39;s Career Readiness Modules (2 weeks) -->
<g id="edge30" class="edge">
<title>Resume &amp; Interview Skills&#45;&gt;Euron&#39;s Career Readiness Modules (2 weeks)</title>
<path fill="none" stroke="#999999" stroke-width="2" d="M9885.38,-251.71C9885.38,-209.28 9885.38,-137.69 9885.38,-88.94"/>
<polygon fill="#999999" stroke="#999999" stroke-width="2" points="9890.28,-89.14 9885.38,-75.14 9880.48,-89.14 9890.28,-89.14"/>
</g>
<!-- Euron&#39;s Tech Community &amp; Networking Tips (2 weeks) -->
<g id="node36" class="node">
<title>Euron&#39;s Tech Community &amp; Networking Tips (2 weeks)</title>
<polygon fill="#fff8dc" stroke="#ffb300" stroke-width="3" points="10904.12,-72 10262.62,-72 10262.62,0 10904.12,0 10904.12,-72"/>
<text xml:space="preserve" text-anchor="middle" x="10583.38" y="-26.7" font-family="Helvetica,sans-Serif" font-weight="bold" font-size="24.00" fill="#000000">Euron&#39;s Tech Community &amp; Networking Tips (2 weeks)</text>
</g>
<!-- Networking &amp; Community Engagement&#45;&gt;Euron&#39;s Tech Community &amp; Networking Tips (2 weeks) -->
<g id="edge32" class="edge">
<title>Networking &amp; Community Engagement&#45;&gt;Euron&#39;s Tech Community &amp; Networking Tips (2 weeks)</title>
<path fill="none" stroke="#999999" stroke-width="2" d="M10497.49,-251.71C10514.61,-208.9 10543.6,-136.43 10563.11,-87.66"/>
<polygon fill="#999999" stroke="#999999" stroke-width="2" points="10567.56,-89.74 10568.21,-74.92 10558.46,-86.1 10567.56,-89.74"/>
</g>
</g>
</svg>
